<svg version="1.1" id="Layer_1" xmlns="http://www.w3.org/2000/svg" xmlns:xlink="http://www.w3.org/1999/xlink" x="0px" y="0px"
	 width="100%" viewBox="0 0 500 500" enable-background="new 0 0 500 500" xml:space="preserve">
<path fill="#070707" opacity="1.000000" stroke="none" 
	d="
M501.000000,2.000000 
	C501.000000,168.286118 501.000000,334.572235 501.000000,500.929199 
	C334.427887,500.929199 167.855713,500.929199 1.000000,500.929199 
	C1.000000,334.975189 1.000000,168.950241 1.462638,2.462381 
	C168.283524,1.999657 334.641754,1.999828 501.000000,2.000000 
M290.797546,224.831421 
	C290.717804,227.908691 290.638062,230.985977 289.756561,234.107101 
	C289.217773,234.791229 288.678955,235.475357 288.140167,236.159500 
	C288.949097,236.750687 289.758026,237.341873 290.799377,238.687119 
	C290.721771,241.122574 290.644196,243.558044 289.811798,246.052811 
	C289.214386,250.008102 288.565582,253.957825 288.134125,257.931152 
	C288.105103,258.198761 289.717255,258.644592 290.795715,259.902252 
	C290.795715,294.819183 290.795715,329.736084 290.795715,365.196991 
	C298.558533,364.659943 305.771790,364.160889 313.466370,363.628540 
	C313.466370,361.446747 313.466644,359.648560 313.466339,357.850372 
	C313.457703,303.229645 312.961853,248.601624 313.780548,193.993317 
	C313.986877,180.229355 311.233368,169.546753 300.101776,161.271759 
	C296.926636,158.911453 294.395996,155.684143 290.811462,152.095078 
	C290.811462,155.625412 290.819916,157.781555 290.810120,159.937622 
	C290.731506,177.244949 290.649445,194.552292 289.750885,212.001465 
	C285.418823,215.929550 285.825073,221.884979 290.797546,224.831421 
M262.111847,367.653717 
	C263.705353,369.625336 264.577667,369.107605 265.672333,366.470581 
	C268.095642,366.269379 270.518982,366.068176 272.902069,365.870300 
	C273.024017,364.996918 273.150024,364.514587 273.150360,364.032166 
	C273.170929,336.710449 273.230194,309.388428 273.084686,282.067566 
	C273.074677,280.188324 271.942047,277.938934 270.630310,276.501587 
	C258.840363,263.582672 246.830231,250.864426 235.070877,237.918167 
	C233.567444,236.262985 232.341812,233.646301 232.321701,231.462738 
	C232.122192,209.807037 232.197678,188.148743 232.223465,166.491196 
	C232.224808,165.359436 232.046387,163.769501 232.683533,163.167572 
	C238.756042,157.430649 244.986725,151.861145 251.115173,146.295166 
	C251.115173,166.559860 251.115173,187.428101 251.115173,208.069794 
	C258.711975,208.069794 265.795441,208.069794 273.185394,208.069794 
	C273.185394,183.763336 273.205292,159.799744 273.125763,135.836472 
	C273.121857,134.656830 272.568024,133.143188 271.732574,132.354965 
	C264.704926,125.724289 257.551697,119.226715 250.436234,112.689095 
	C251.063080,111.840515 250.566452,112.017509 250.236053,112.356522 
	C237.332275,125.596710 224.395752,138.805969 211.633087,152.181046 
	C210.461060,153.409317 209.921387,155.706970 209.914490,157.511200 
	C209.808853,185.165848 209.782211,212.821396 209.952087,240.475388 
	C209.965576,242.672058 211.027725,245.343491 212.506836,246.973862 
	C224.368469,260.048462 236.505722,272.872894 248.382492,285.934021 
	C249.771042,287.461029 250.727402,289.940887 250.792618,292.013336 
	C251.059631,300.501343 250.903458,309.002686 250.903320,317.499115 
	C250.903168,326.287933 250.903290,335.076782 250.903290,343.983887 
	C244.366943,343.983887 238.352188,343.983887 232.004974,343.983887 
	C232.004974,330.584320 232.004974,317.645416 232.004974,304.503448 
	C224.571533,304.503448 217.486115,304.503448 210.120789,304.503448 
	C210.120789,324.803223 210.120789,344.879028 210.120789,366.199554 
	C227.491272,366.460480 244.745590,366.719666 262.111847,367.653717 
M75.051575,338.821869 
	C75.709808,338.854187 76.368050,338.886536 77.899940,338.791504 
	C84.689110,339.516388 91.497780,340.099487 98.258743,341.029419 
	C101.368126,341.457123 103.520454,340.704254 105.724754,338.401917 
	C115.746391,327.934723 125.781197,317.468140 136.150650,307.349121 
	C147.184647,296.581604 158.600479,286.205322 169.036819,276.420288 
	C169.036819,288.362885 169.036819,302.222839 169.036819,316.574707 
	C167.310532,316.574707 165.687897,316.606110 164.066818,316.569366 
	C156.738770,316.403351 148.635269,314.187439 142.300400,316.607849 
	C135.896286,319.054718 131.245972,326.088959 125.821259,331.107025 
	C125.340309,331.551910 124.775955,331.909973 124.315315,332.373016 
	C120.998085,335.707336 117.697639,339.058411 113.364624,343.443817 
	C118.424316,343.443817 121.945045,343.443817 126.054848,343.443817 
	C126.054848,348.194702 126.054848,352.426056 126.054848,356.699249 
	C134.813156,357.763245 142.979294,358.755280 151.633057,359.806580 
	C151.633057,352.577515 151.633057,345.980530 151.633057,339.434143 
	C157.657059,339.434143 163.249527,339.434143 169.150482,339.434143 
	C169.150482,347.050659 169.150482,354.317017 169.150482,361.866913 
	C176.797180,362.567474 184.151108,363.241211 191.683960,363.931335 
	C191.683960,300.055664 191.683960,236.709991 191.683960,172.649673 
	C190.251755,173.945190 189.268066,174.741104 188.391632,175.641418 
	C163.873947,200.827362 139.402863,226.058716 114.847107,251.207443 
	C95.661224,270.856628 76.372513,290.405396 56.381981,310.007446 
	C53.379959,310.934174 50.334053,311.822784 50.904800,316.689667 
	C45.628414,322.137756 40.352028,327.585876 34.551445,333.575226 
	C42.664501,334.612854 49.900757,335.286774 57.031384,336.554749 
	C60.680630,337.203674 63.116848,336.573700 65.778175,333.834564 
	C97.564201,301.119202 129.484909,268.534729 161.378296,235.923706 
	C163.731857,233.517197 166.146149,231.170090 168.682220,228.646088 
	C170.728378,236.750763 168.555801,242.296753 162.956375,247.829926 
	C141.761627,268.773895 121.084198,290.242767 100.293472,311.593445 
	C91.730759,320.386749 83.371361,329.378052 75.051575,338.821869 
M318.862061,261.499939 
	C318.862061,295.264496 318.862061,329.029053 318.862061,363.201874 
	C322.286041,362.960846 325.150604,362.759216 328.273468,362.539368 
	C328.273468,360.302460 328.273499,358.649994 328.273468,356.997559 
	C328.273132,315.683777 328.272705,274.369995 328.272736,233.056198 
	C328.272736,231.890137 327.798126,230.258621 328.382111,229.657257 
	C329.513306,228.492416 332.332794,226.962250 332.559082,227.223526 
	C336.075592,231.283447 341.357819,233.751053 341.298340,240.749649 
	C340.972687,279.062103 341.140869,317.378754 341.139343,355.693970 
	C341.139282,357.313721 341.139313,358.933441 341.139313,361.048676 
	C349.069489,360.241577 356.402313,359.495270 363.859711,358.736298 
	C363.859711,353.582916 363.671265,349.084717 363.939606,344.613953 
	C364.072693,342.396545 365.045471,340.229492 365.638367,338.039673 
	C367.644043,339.103668 369.689453,340.100555 371.641907,341.254578 
	C373.012482,342.064697 374.313965,343.959869 375.547760,343.878387 
	C384.570129,343.282532 393.567535,342.309265 403.623779,341.355408 
	C397.049866,334.485413 391.316559,328.491852 385.580658,322.500763 
	C383.853668,320.696960 382.270660,318.708008 380.327362,317.177673 
	C379.297394,316.366608 377.644958,316.081573 376.257782,316.035645 
	C371.064728,315.863770 363.891388,308.791016 363.879028,303.549805 
	C363.849609,291.055817 363.872986,278.561676 363.874908,266.067596 
	C363.875214,264.196808 363.874939,262.326019 363.874939,260.455231 
	C364.310394,260.301300 364.745880,260.147400 365.181335,259.993469 
	C366.931854,261.977295 368.601410,264.039948 370.445160,265.932922 
	C392.643311,288.723724 414.848389,311.507965 437.133728,334.213318 
	C438.404846,335.508362 440.475342,337.020569 442.025391,336.873016 
	C450.372955,336.078369 458.673523,334.790649 467.967133,333.541840 
	C418.075409,282.362640 368.886047,231.903931 318.862091,180.589096 
	C318.862091,208.013229 318.862091,234.256592 318.862061,261.499939 
z"/>
<path fill="#101111" opacity="1.000000" stroke="none" 
	d="
M501.000000,1.500000 
	C334.641754,1.999828 168.283524,1.999657 1.462638,1.999743 
	C2.333333,1.666667 3.665965,1.045924 5.000104,1.042664 
	C28.999962,0.984023 53.000000,1.000000 77.000000,1.000000 
	C218.333328,1.000000 359.666656,1.000000 501.000000,1.500000 
z"/>
<path fill="#FAFAF9" opacity="1.000000" stroke="none" 
	d="
M57.129490,309.998779 
	C76.372513,290.405396 95.661224,270.856628 114.847107,251.207443 
	C139.402863,226.058716 163.873947,200.827362 188.391632,175.641418 
	C189.268066,174.741104 190.251755,173.945190 191.683960,172.649673 
	C191.683960,236.709991 191.683960,300.055664 191.683960,363.931335 
	C184.151108,363.241211 176.797180,362.567474 169.150482,361.866913 
	C169.150482,354.317017 169.150482,347.050659 169.150482,339.434143 
	C163.249527,339.434143 157.657059,339.434143 151.633057,339.434143 
	C151.633057,345.980530 151.633057,352.577515 151.633057,359.806580 
	C142.979294,358.755280 134.813156,357.763245 126.054848,356.699249 
	C126.054848,352.426056 126.054848,348.194702 126.054848,343.443817 
	C121.945045,343.443817 118.424316,343.443817 113.364624,343.443817 
	C117.697639,339.058411 120.998085,335.707336 124.315315,332.373016 
	C124.775955,331.909973 125.340309,331.551910 125.821259,331.107025 
	C131.245972,326.088959 135.896286,319.054718 142.300400,316.607849 
	C148.635269,314.187439 156.738770,316.403351 164.066818,316.569366 
	C165.687897,316.606110 167.310532,316.574707 169.036819,316.574707 
	C169.036819,302.222839 169.036819,288.362885 169.036819,276.420288 
	C158.600479,286.205322 147.184647,296.581604 136.150650,307.349121 
	C125.781197,317.468140 115.746391,327.934723 105.724754,338.401917 
	C103.520454,340.704254 101.368126,341.457123 98.258743,341.029419 
	C91.497780,340.099487 84.689110,339.516388 77.243347,338.678497 
	C76.031006,338.470093 75.475258,338.374725 74.919502,338.279358 
	C83.371361,329.378052 91.730759,320.386749 100.293472,311.593445 
	C121.084198,290.242767 141.761627,268.773895 162.956375,247.829926 
	C168.555801,242.296753 170.728378,236.750763 168.682220,228.646088 
	C166.146149,231.170090 163.731857,233.517197 161.378296,235.923706 
	C129.484909,268.534729 97.564201,301.119202 65.778175,333.834564 
	C63.116848,336.573700 60.680630,337.203674 57.031384,336.554749 
	C49.900757,335.286774 42.664501,334.612854 34.551445,333.575226 
	C40.352028,327.585876 45.628414,322.137756 51.329330,316.260437 
	C53.545738,313.887054 55.337612,311.942932 57.129490,309.998779 
z"/>
<path fill="#FCFCFA" opacity="1.000000" stroke="none" 
	d="
M261.999908,366.978851 
	C244.745590,366.719666 227.491272,366.460480 210.120789,366.199554 
	C210.120789,344.879028 210.120789,324.803223 210.120789,304.503448 
	C217.486115,304.503448 224.571533,304.503448 232.004974,304.503448 
	C232.004974,317.645416 232.004974,330.584320 232.004974,343.983887 
	C238.352188,343.983887 244.366943,343.983887 250.903290,343.983887 
	C250.903290,335.076782 250.903168,326.287933 250.903320,317.499115 
	C250.903458,309.002686 251.059631,300.501343 250.792618,292.013336 
	C250.727402,289.940887 249.771042,287.461029 248.382492,285.934021 
	C236.505722,272.872894 224.368469,260.048462 212.506836,246.973862 
	C211.027725,245.343491 209.965576,242.672058 209.952087,240.475388 
	C209.782211,212.821396 209.808853,185.165848 209.914490,157.511200 
	C209.921387,155.706970 210.461060,153.409317 211.633087,152.181046 
	C224.395752,138.805969 237.332275,125.596710 250.236053,112.356522 
	C250.566452,112.017509 251.063080,111.840515 250.436234,112.689095 
	C257.551697,119.226715 264.704926,125.724289 271.732574,132.354965 
	C272.568024,133.143188 273.121857,134.656830 273.125763,135.836472 
	C273.205292,159.799744 273.185394,183.763336 273.185394,208.069794 
	C265.795441,208.069794 258.711975,208.069794 251.115173,208.069794 
	C251.115173,187.428101 251.115173,166.559860 251.115173,146.295166 
	C244.986725,151.861145 238.756042,157.430649 232.683533,163.167572 
	C232.046387,163.769501 232.224808,165.359436 232.223465,166.491196 
	C232.197678,188.148743 232.122192,209.807037 232.321701,231.462738 
	C232.341812,233.646301 233.567444,236.262985 235.070877,237.918167 
	C246.830231,250.864426 258.840363,263.582672 270.630310,276.501587 
	C271.942047,277.938934 273.074677,280.188324 273.084686,282.067566 
	C273.230194,309.388428 273.170929,336.710449 273.150360,364.032166 
	C273.150024,364.514587 273.024017,364.996918 272.902069,365.870300 
	C270.518982,366.068176 268.095642,366.269379 264.944885,366.539886 
	C263.478271,366.732391 262.739075,366.855621 261.999908,366.978851 
z"/>
<path fill="#FAFBF9" opacity="1.000000" stroke="none" 
	d="
M318.862061,260.999939 
	C318.862091,234.256592 318.862091,208.013229 318.862091,180.589096 
	C368.886047,231.903931 418.075409,282.362640 467.967133,333.541840 
	C458.673523,334.790649 450.372955,336.078369 442.025391,336.873016 
	C440.475342,337.020569 438.404846,335.508362 437.133728,334.213318 
	C414.848389,311.507965 392.643311,288.723724 370.445160,265.932922 
	C368.601410,264.039948 366.931854,261.977295 365.181335,259.993469 
	C364.745880,260.147400 364.310394,260.301300 363.874939,260.455231 
	C363.874939,262.326019 363.875214,264.196808 363.874908,266.067596 
	C363.872986,278.561676 363.849609,291.055817 363.879028,303.549805 
	C363.891388,308.791016 371.064728,315.863770 376.257782,316.035645 
	C377.644958,316.081573 379.297394,316.366608 380.327362,317.177673 
	C382.270660,318.708008 383.853668,320.696960 385.580658,322.500763 
	C391.316559,328.491852 397.049866,334.485413 403.623779,341.355408 
	C393.567535,342.309265 384.570129,343.282532 375.547760,343.878387 
	C374.313965,343.959869 373.012482,342.064697 371.641907,341.254578 
	C369.689453,340.100555 367.644043,339.103668 365.638367,338.039673 
	C365.045471,340.229492 364.072693,342.396545 363.939606,344.613953 
	C363.671265,349.084717 363.859711,353.582916 363.859711,358.736298 
	C356.402313,359.495270 349.069489,360.241577 341.139313,361.048676 
	C341.139313,358.933441 341.139282,357.313721 341.139343,355.693970 
	C341.140869,317.378754 340.972687,279.062103 341.298340,240.749649 
	C341.357819,233.751053 336.075592,231.283447 332.559082,227.223526 
	C332.332794,226.962250 329.513306,228.492416 328.382111,229.657257 
	C327.798126,230.258621 328.272736,231.890137 328.272736,233.056198 
	C328.272705,274.369995 328.273132,315.683777 328.273468,356.997559 
	C328.273499,358.649994 328.273468,360.302460 328.273468,362.539368 
	C325.150604,362.759216 322.286041,362.960846 318.862061,363.201874 
	C318.862061,329.029053 318.862061,295.264496 318.862061,260.999939 
z"/>
<path fill="#FDFDFB" opacity="1.000000" stroke="none" 
	d="
M290.566620,245.993500 
	C290.644196,243.558044 290.721771,241.122574 290.796631,237.932922 
	C290.715363,236.140244 290.636841,235.101746 290.558319,234.063248 
	C290.638062,230.985977 290.717804,227.908691 290.799500,223.977814 
	C290.723785,219.369339 290.646088,215.614471 290.568420,211.859619 
	C290.649445,194.552292 290.731506,177.244949 290.810120,159.937622 
	C290.819916,157.781555 290.811462,155.625412 290.811462,152.095078 
	C294.395996,155.684143 296.926636,158.911453 300.101776,161.271759 
	C311.233368,169.546753 313.986877,180.229355 313.780548,193.993317 
	C312.961853,248.601624 313.457703,303.229645 313.466339,357.850372 
	C313.466644,359.648560 313.466370,361.446747 313.466370,363.628540 
	C305.771790,364.160889 298.558533,364.659943 290.795715,365.196991 
	C290.795715,329.736084 290.795715,294.819183 290.797211,259.003754 
	C290.721344,254.068008 290.643982,250.030746 290.566620,245.993500 
z"/>
<path fill="#070707" opacity="1.000000" stroke="none" 
	d="
M290.159637,211.930542 
	C290.646088,215.614471 290.723785,219.369339 290.685669,223.565826 
	C285.825073,221.884979 285.418823,215.929550 290.159637,211.930542 
z"/>
<path fill="#070707" opacity="1.000000" stroke="none" 
	d="
M290.189209,246.023163 
	C290.643982,250.030746 290.721344,254.068008 290.682404,258.556396 
	C289.717255,258.644592 288.105103,258.198761 288.134125,257.931152 
	C288.565582,253.957825 289.214386,250.008102 290.189209,246.023163 
z"/>
<path fill="#070707" opacity="1.000000" stroke="none" 
	d="
M56.755737,310.003113 
	C55.337612,311.942932 53.545738,313.887054 51.444580,315.941193 
	C50.334053,311.822784 53.379959,310.934174 56.755737,310.003113 
z"/>
<path fill="#070707" opacity="1.000000" stroke="none" 
	d="
M290.157440,234.085175 
	C290.636841,235.101746 290.715363,236.140244 290.680420,237.555908 
	C289.758026,237.341873 288.949097,236.750687 288.140167,236.159500 
	C288.678955,235.475357 289.217773,234.791229 290.157440,234.085175 
z"/>
<path fill="#070707" opacity="1.000000" stroke="none" 
	d="
M262.055878,367.316284 
	C262.739075,366.855621 263.478271,366.732391 264.579346,366.721588 
	C264.577667,369.107605 263.705353,369.625336 262.055878,367.316284 
z"/>
<path fill="#0B0B0A" opacity="1.000000" stroke="none" 
	d="
M74.985535,338.550598 
	C75.475258,338.374725 76.031006,338.470093 76.806519,338.742188 
	C76.368050,338.886536 75.709808,338.854187 74.985535,338.550598 
z"/>
</svg>